# xmcd
#
# Track frame offsets: 
#        150
#        22018
#        43611
#        62483
#        86936
#        110056
#        132928
#        159831
#        183713
#
# Disc length: 2969 seconds
#
# Revision: 9
# Processed by: cddbd v1.5.2PL0 Copyright (c) Steve Scherf et al.
# Submitted via: ExactAudioCopy v0.99pb1
#
DISCID=790b9709
DTITLE=Chris Spheeris - Chris Spheeris Culture
DYEAR=1993
DGENRE=New Age
TTITLE0=Aria
TTITLE1=Margarita
TTITLE2=Embrace
TTITLE3=Elecktra
TTITLE4=Culture
TTITLE5=Sapphire
TTITLE6=Allura
TTITLE7=Bombay
TTITLE8=One
EXTD=Chris Spheeris 克利斯.斯菲里斯《Culture 文明》\n歌手姓名:Chris Sp
EXTD=heeris \n专辑名称:文明 Culture\n唱片公司:essence\n发行日期:1993\n
EXTD=YEAR: 1993
EXTT0=
EXTT1=
EXTT2=
EXTT3=
EXTT4=
EXTT5=
EXTT6=
EXTT7=
EXTT8=
PLAYORDER=
